<?xml version="1.0" standalone="no"?>
<!DOCTYPE svg PUBLIC "-//W3C//DTD SVG 20010904//EN"
 "http://www.w3.org/TR/2001/REC-SVG-20010904/DTD/svg10.dtd">
<svg version="1.0" xmlns="http://www.w3.org/2000/svg"
 width="1024.000000pt" height="1024.000000pt" viewBox="0 0 1024.000000 1024.000000"
 preserveAspectRatio="xMidYMid meet">
<metadata>
Created by potrace 1.14, written by Peter Selinger 2001-2017
</metadata>
<g transform="translate(0.000000,1024.000000) scale(0.100000,-0.100000)"
fill="#000000" stroke="none">
<path d="M6090 8611 c0 -6 -9 -8 -20 -6 -11 2 -20 -1 -20 -7 0 -5 -7 -8 -15
-4 -8 3 -15 2 -15 -3 0 -7 -26 -19 -52 -25 -19 -3 -138 -127 -138 -142 0 -8
-4 -14 -8 -14 -11 0 -46 -98 -48 -131 0 -15 -4 -34 -7 -43 -4 -9 -1 -16 6 -16
7 0 8 -3 2 -8 -11 -8 -15 -52 -5 -52 4 0 6 -13 5 -30 -1 -16 2 -30 7 -30 4 0
8 -11 8 -25 0 -14 5 -25 11 -25 6 0 9 -7 5 -15 -3 -9 0 -15 9 -15 9 0 12 -6 9
-15 -4 -8 1 -17 10 -21 9 -3 16 -11 16 -16 0 -6 8 -18 18 -27 9 -9 30 -31 45
-49 15 -19 27 -31 27 -27 0 3 29 -24 65 -61 36 -37 65 -72 65 -77 0 -6 3 -8 6
-4 7 6 34 -15 29 -23 -2 -3 12 -16 31 -30 18 -14 34 -31 34 -38 0 -7 3 -11 8
-9 4 3 13 -1 20 -9 7 -8 10 -14 6 -14 -4 0 6 -10 22 -22 44 -35 63 -56 56 -62
-3 -3 -1 -6 5 -6 13 0 153 -137 153 -150 0 -5 6 -10 13 -10 8 0 20 -11 27 -25
7 -13 17 -22 22 -19 5 3 12 -3 15 -15 3 -12 9 -21 15 -21 10 0 52 -41 86 -84
12 -16 22 -26 22 -22 0 4 6 1 14 -6 8 -7 12 -16 9 -20 -2 -5 1 -8 7 -8 13 0
60 -49 60 -63 0 -6 3 -8 6 -4 7 7 134 -122 134 -136 0 -6 3 -8 6 -5 6 7 27
-12 62 -56 12 -16 22 -26 22 -22 0 4 6 1 14 -6 8 -7 12 -16 9 -20 -2 -5 2 -8
9 -8 7 0 24 -16 38 -34 14 -19 29 -32 33 -29 5 3 11 -4 14 -16 3 -12 8 -21 12
-21 4 0 38 -29 75 -65 37 -36 64 -65 59 -65 -4 0 4 -8 20 -18 15 -10 24 -22
20 -25 -3 -4 -2 -7 3 -7 15 0 64 -46 57 -54 -3 -3 -2 -6 3 -6 14 0 74 -57 74
-69 0 -6 4 -11 9 -11 5 0 39 -29 76 -65 36 -36 63 -65 58 -65 -4 0 4 -8 20
-18 15 -10 24 -22 20 -25 -3 -4 -2 -7 4 -7 14 0 243 -229 243 -243 0 -6 3 -8
6 -4 6 6 27 -13 62 -57 12 -16 22 -25 22 -21 0 5 9 -2 20 -15 11 -13 20 -20
20 -17 0 4 9 -2 20 -13 11 -11 31 -22 45 -26 14 -3 25 -9 25 -13 0 -4 12 -8
27 -9 15 -1 29 -6 32 -10 3 -4 17 -8 31 -7 14 0 40 -3 58 -6 18 -4 32 -3 32 3
0 5 4 7 9 4 12 -8 121 15 121 25 0 5 3 9 8 8 15 -2 52 14 52 23 0 5 4 6 10 3
5 -3 15 3 22 15 7 11 17 20 21 20 8 0 65 56 67 65 3 14 36 65 42 65 4 0 5 7 2
15 -4 8 -2 15 3 15 8 0 12 15 15 58 1 6 5 12 10 12 5 0 4 10 -3 21 -8 16 -8
20 0 15 13 -8 7 137 -6 158 -4 6 -9 20 -10 31 -2 11 -8 22 -13 23 -6 2 -8 8
-4 13 3 5 0 9 -7 9 -7 0 -10 3 -6 6 3 4 1 12 -6 19 -7 7 -19 23 -27 35 -24 36
-108 119 -114 112 -3 -3 -6 0 -6 6 0 14 -89 102 -103 102 -6 0 -8 3 -5 6 8 7
-95 112 -104 107 -5 -2 -8 1 -8 7 0 15 -25 40 -41 40 -7 0 -10 3 -7 6 8 7
-125 142 -134 137 -5 -2 -8 1 -8 7 0 6 -16 25 -35 43 -19 17 -35 38 -35 45 0
18 26 43 35 34 4 -4 5 -2 3 3 -4 14 68 86 77 77 4 -4 5 -2 3 3 -4 14 93 111
107 107 5 -2 7 -1 3 3 -3 4 43 56 103 115 60 60 109 114 109 120 0 6 4 9 9 6
8 -5 16 13 28 64 4 20 5 70 0 96 -5 32 -57 115 -68 109 -5 -4 -9 -3 -9 2 0 13
-51 68 -61 65 -5 -1 -9 2 -9 7 0 12 -158 171 -170 171 -6 0 -9 3 -8 8 3 9
-295 307 -304 304 -5 -1 -8 3 -8 8 0 14 -71 56 -87 52 -7 -2 -13 1 -13 6 0 4
-15 7 -32 5 -18 -2 -42 -4 -52 -4 -27 0 -92 -35 -109 -59 -7 -11 -16 -17 -19
-14 -4 3 -9 -4 -13 -15 -3 -11 -15 -23 -26 -26 -10 -4 -17 -10 -14 -15 3 -5
-4 -11 -15 -15 -11 -4 -19 -9 -17 -13 1 -4 -12 -21 -30 -39 -18 -17 -33 -30
-33 -28 0 2 -13 -8 -28 -23 -15 -15 -26 -29 -25 -31 4 -6 -38 -41 -49 -41 -4
0 -8 -6 -8 -14 0 -8 -9 -18 -20 -21 -11 -4 -18 -10 -15 -15 3 -5 -4 -11 -15
-15 -11 -4 -18 -10 -15 -15 3 -5 -4 -11 -15 -15 -11 -3 -20 -11 -20 -17 0 -15
-42 -47 -62 -48 -10 0 -17 6 -15 13 1 6 -4 11 -10 10 -7 -2 -13 1 -13 7 0 13
-78 89 -85 82 -3 -3 -5 0 -5 7 0 15 -25 41 -39 41 -6 0 -10 6 -8 13 1 6 -4 11
-10 10 -7 -2 -13 1 -13 7 0 13 -97 110 -110 110 -5 0 -10 4 -10 9 0 13 -79 91
-92 91 -6 0 -9 2 -6 5 3 3 -34 45 -82 93 -101 100 -126 122 -140 122 -6 0 -10
4 -10 8 0 6 -40 27 -72 37 -5 1 -9 3 -10 5 -7 5 -50 12 -111 17 -49 4 -72 2
-84 -8 -11 -10 -14 -10 -9 -1 4 6 2 12 -3 12 -6 0 -11 -4 -11 -9z"/>
<path d="M4954 8040 c-5 -5 -25 -12 -44 -15 -19 -3 -39 -10 -46 -15 -6 -6 -14
-7 -17 -3 -4 3 -7 2 -7 -4 0 -6 -10 -13 -22 -16 -13 -4 -40 -22 -61 -42 -20
-19 -42 -35 -48 -35 -5 0 -7 -5 -4 -10 3 -6 -1 -13 -9 -16 -9 -3 -13 -10 -10
-15 3 -5 -1 -12 -9 -15 -8 -3 -20 -23 -27 -45 -7 -21 -17 -39 -21 -39 -4 0 -6
-8 -4 -17 1 -10 0 -22 -4 -28 -13 -22 -14 -39 -11 -127 2 -38 7 -68 12 -68 4
0 8 -13 8 -30 0 -16 5 -30 10 -30 6 0 9 -3 8 -7 -2 -5 8 -26 22 -48 27 -45
2695 -2718 2723 -2728 9 -3 17 -11 17 -17 0 -5 6 -10 13 -10 7 0 28 -8 47 -19
19 -10 43 -17 53 -15 9 1 17 -1 17 -5 0 -12 140 -12 183 1 23 6 45 11 50 10 4
-1 7 3 7 9 0 5 5 7 10 4 6 -3 10 -1 10 4 0 6 3 10 8 10 23 -4 34 3 102 65 73
67 115 157 126 266 1 14 3 27 4 30 1 3 1 10 0 15 -1 6 -5 28 -7 50 -3 22 -10
51 -15 65 -5 14 -9 26 -8 28 0 1 -6 10 -15 18 -8 9 -13 19 -10 23 2 5 -4 16
-15 26 -11 10 -20 22 -20 26 0 12 -68 79 -80 79 -6 0 -10 3 -8 8 5 9 -400 411
-407 404 -3 -3 -5 0 -5 5 0 14 -229 243 -243 243 -6 0 -8 3 -4 6 7 7 -61 74
-76 74 -5 0 -8 2 -5 5 7 7 -221 235 -235 235 -6 0 -8 3 -4 6 7 7 -61 74 -76
74 -5 0 -8 2 -5 5 7 7 -140 155 -154 155 -5 0 -8 3 -5 8 4 9 -140 151 -148
144 -3 -3 -5 0 -5 5 0 14 -229 243 -243 243 -6 0 -8 3 -5 6 7 7 -141 154 -155
154 -6 0 -8 2 -5 5 7 8 -135 152 -144 148 -5 -3 -8 0 -8 5 0 14 -148 161 -155
154 -3 -3 -5 0 -5 5 0 15 -67 83 -80 83 -6 0 -10 3 -7 8 4 9 -140 151 -148
144 -3 -3 -5 0 -5 6 0 15 -270 282 -285 282 -4 0 -13 7 -22 15 -8 8 -19 13
-24 10 -5 -4 -9 -1 -9 4 0 6 -9 11 -19 11 -11 0 -23 5 -26 11 -4 6 -13 8 -21
5 -7 -3 -16 -1 -18 3 -3 5 -17 7 -31 6 -14 -2 -25 1 -25 7 0 6 -6 5 -15 -2
-12 -10 -15 -10 -15 1 0 10 -3 10 -12 1 -7 -7 -17 -8 -28 -2 -10 5 -21 5 -26
0z"/>
<path d="M4925 5797 c-203 -205 -369 -376 -367 -380 1 -5 -1 -7 -5 -4 -5 2
-117 -106 -250 -240 -168 -169 -238 -246 -228 -249 8 -4 15 -10 15 -16 0 -13
109 -118 123 -118 6 0 8 -3 4 -6 -7 -7 61 -74 76 -74 6 0 8 -3 5 -6 -6 -5 234
-248 295 -300 16 -13 26 -24 22 -24 -4 0 10 -16 31 -35 20 -19 41 -35 46 -35
5 0 7 -3 5 -7 -6 -10 39 -53 47 -46 3 4 6 1 6 -5 0 -14 168 -182 183 -182 6 0
55 45 109 101 54 55 98 97 98 93 0 -4 10 5 23 22 35 46 114 124 126 124 6 0
10 3 9 8 -4 11 219 231 227 224 4 -4 5 -2 3 3 -2 6 142 156 320 333 177 178
322 327 322 332 0 12 -188 200 -200 200 -5 0 -9 6 -7 13 1 6 -4 11 -10 10 -7
-2 -13 2 -13 7 0 13 -132 145 -142 142 -5 -1 -8 3 -8 8 0 13 -62 76 -72 72 -5
-1 -8 3 -8 8 0 14 -46 60 -60 60 -5 0 -9 6 -7 13 1 6 -4 11 -10 10 -7 -2 -13
1 -13 6 0 15 -300 311 -313 310 -7 0 -178 -168 -382 -372z"/>
<path d="M2596 5633 c-3 -4 -23 -8 -44 -10 -63 -5 -72 -7 -72 -15 0 -4 -3 -7
-7 -6 -5 1 -18 -3 -30 -10 -13 -7 -23 -9 -23 -5 0 4 -5 0 -11 -10 -6 -9 -14
-15 -20 -12 -5 4 -9 1 -9 -5 0 -6 -4 -8 -10 -5 -5 3 -10 -2 -10 -11 0 -10 -3
-15 -6 -11 -7 7 -64 -49 -64 -64 0 -6 -5 -7 -12 -3 -6 4 -8 3 -5 -3 4 -6 0
-16 -8 -23 -8 -7 -12 -16 -9 -21 3 -5 1 -9 -3 -9 -11 0 -44 -95 -47 -135 -1
-17 -5 -35 -9 -41 -3 -6 -3 -14 1 -18 4 -4 7 -20 7 -34 1 -62 42 -164 89 -219
44 -52 1771 -1773 1779 -1773 6 0 8 -2 5 -5 -6 -7 841 -855 854 -855 5 0 7 -4
4 -8 -3 -5 6 -15 19 -22 14 -7 25 -17 25 -22 0 -4 7 -8 15 -8 8 0 15 -4 15 -9
0 -8 37 -24 53 -22 4 1 7 -4 7 -11 0 -6 3 -8 6 -5 4 3 14 2 24 -3 9 -5 34 -10
54 -12 20 -1 36 -6 36 -11 0 -5 7 -4 15 3 8 7 15 8 15 3 0 -5 7 -10 15 -10 8
0 15 3 15 7 0 3 15 7 33 8 53 4 80 11 87 23 4 6 9 10 11 9 12 -5 58 13 53 21
-3 5 1 9 9 9 7 0 36 20 63 45 27 25 45 45 40 45 -5 0 1 8 12 19 12 10 19 21
15 25 -3 3 -1 6 6 6 7 0 9 4 6 10 -3 5 -2 10 3 10 9 0 15 17 30 75 2 11 6 61
7 110 2 75 -1 98 -21 143 -13 28 -20 52 -17 52 3 0 -4 9 -17 20 -13 11 -20 20
-16 20 4 0 -33 41 -83 90 -50 50 -91 95 -91 100 0 6 -4 10 -9 10 -12 0 -199
188 -193 195 3 3 1 5 -5 5 -14 0 -123 109 -123 123 0 5 -3 7 -7 4 -3 -4 -15 5
-25 20 -10 16 -18 24 -18 20 0 -8 -52 44 -124 124 -20 21 -36 37 -36 34 0 -3
-22 17 -50 45 -27 28 -50 55 -50 60 0 6 -4 10 -9 10 -11 0 -311 300 -311 311
0 5 -7 9 -15 9 -9 0 -20 11 -27 25 -6 13 -15 22 -19 19 -5 -3 -9 3 -9 12 0 10
-2 15 -5 12 -7 -7 -135 121 -135 135 0 5 -2 8 -5 5 -7 -7 -115 101 -115 115 0
5 -3 7 -7 4 -3 -4 -15 5 -25 20 -10 16 -18 25 -18 21 0 -4 -34 27 -75 69 -41
42 -75 81 -75 86 0 6 -2 8 -5 5 -7 -7 -192 175 -187 185 2 4 -1 7 -7 7 -13 0
-119 108 -113 115 3 3 1 5 -5 5 -14 0 -142 128 -135 135 3 3 -2 5 -12 5 -9 0
-15 4 -12 9 3 4 -6 13 -19 19 -14 7 -25 18 -25 27 0 8 -4 15 -9 15 -13 0 -231
220 -231 233 0 6 -2 8 -5 5 -3 -2 -68 58 -145 134 -77 76 -146 138 -155 138
-8 0 -15 4 -15 9 0 5 -14 11 -31 15 -17 3 -28 9 -25 14 2 4 -7 7 -22 7 -15 -1
-33 3 -39 8 -7 5 -13 6 -13 3 0 -4 -9 -2 -19 4 -14 7 -22 7 -26 0 -5 -8 -11
-8 -19 -1 -7 6 -16 8 -20 4z"/>
<path d="M1996 4473 c-4 -4 -17 -8 -29 -10 -23 -2 -60 -10 -64 -13 -2 -2 -6
-3 -10 -4 -40 -10 -123 -65 -155 -101 -4 -5 -19 -23 -33 -38 -14 -15 -25 -33
-25 -38 0 -6 -7 -17 -15 -26 -8 -8 -13 -19 -10 -24 4 -5 1 -9 -6 -9 -7 0 -10
-3 -6 -6 3 -4 0 -21 -7 -38 -13 -32 -14 -159 -1 -206 3 -14 7 -30 9 -36 1 -7
7 -18 13 -25 6 -8 12 -18 13 -24 5 -24 66 -105 79 -105 8 0 12 -2 9 -5 -5 -5
299 -315 310 -315 4 0 16 -13 27 -29 10 -16 23 -27 27 -25 4 3 8 1 8 -5 0 -6
43 -53 96 -105 l96 -94 -215 -215 c-118 -119 -218 -213 -223 -209 -4 4 -4 2
-1 -4 4 -6 -2 -19 -13 -29 -11 -10 -20 -24 -20 -32 0 -7 -4 -13 -8 -13 -4 0
-8 -8 -9 -17 -3 -43 -3 -99 0 -113 7 -27 30 -70 38 -70 4 0 11 -9 14 -20 4
-11 11 -18 16 -15 5 4 9 1 9 -5 0 -11 24 -40 33 -40 2 0 25 -20 49 -45 25 -25
44 -45 42 -45 -1 0 32 -34 74 -75 42 -41 80 -75 85 -75 4 0 6 -3 4 -7 -2 -5
17 -26 44 -48 26 -22 48 -44 48 -49 1 -11 41 -46 53 -46 4 0 8 -7 8 -15 0 -8
8 -15 17 -15 9 0 14 -3 11 -6 -7 -6 39 -54 52 -54 5 0 12 -9 15 -20 4 -11 11
-18 16 -15 5 4 9 -1 9 -9 0 -9 5 -16 11 -16 6 0 24 -9 40 -21 16 -11 29 -17
29 -13 0 3 6 1 14 -5 11 -9 15 -9 19 1 4 9 6 10 6 1 2 -29 120 6 162 48 10 10
24 19 30 19 5 0 9 3 7 8 -2 4 11 21 29 39 18 17 33 29 33 25 0 -3 11 9 25 28
14 19 25 31 25 28 0 -4 18 12 40 34 22 23 40 45 40 50 0 5 4 7 9 3 5 -3 12 4
16 15 4 11 9 19 13 17 7 -3 52 39 48 45 0 2 16 19 36 39 21 21 38 35 38 32 0
-3 9 6 21 21 11 14 26 26 33 26 6 0 28 -18 49 -40 20 -22 42 -40 48 -40 7 0
10 -2 7 -5 -7 -7 355 -372 365 -367 4 2 7 -1 7 -7 0 -12 99 -111 111 -111 5 0
9 -7 9 -15 0 -8 7 -15 15 -15 8 0 15 -4 15 -10 0 -5 5 -10 11 -10 6 0 17 -7
26 -15 8 -8 19 -13 24 -10 5 4 9 1 9 -4 0 -6 9 -11 20 -11 11 0 20 -4 20 -9 0
-5 13 -7 30 -6 16 1 27 -1 24 -6 -2 -4 34 -8 81 -7 47 0 85 4 85 8 0 5 8 7 18
6 9 -2 26 3 38 11 11 7 24 10 27 6 4 -3 7 -1 7 6 0 7 5 9 10 6 6 -3 10 -1 10
6 0 7 3 10 6 6 10 -9 134 104 134 123 0 5 5 10 11 10 5 0 8 4 4 9 -3 5 2 17
11 25 15 15 21 33 23 64 1 7 5 11 10 7 6 -3 8 3 6 14 -2 11 0 34 5 50 6 21 5
31 -3 35 -8 3 -9 5 -1 5 8 1 9 14 4 39 -4 21 -6 50 -6 64 1 15 -2 24 -6 22 -4
-3 -8 6 -8 20 0 13 -5 26 -11 28 -5 2 -11 11 -13 21 -1 10 -10 27 -19 37 -9
11 -13 20 -9 20 4 0 -1 5 -10 11 -10 5 -18 17 -18 26 0 9 -2 14 -5 11 -7 -7
-65 50 -65 63 0 5 -5 9 -11 9 -15 0 -39 26 -32 34 4 3 1 6 -5 6 -13 0 -172
160 -172 172 0 4 -5 8 -11 8 -11 0 -59 47 -96 94 -13 16 -23 26 -23 22 0 -4
-18 12 -40 35 -22 23 -40 47 -40 52 0 6 -3 7 -7 4 -3 -4 -15 5 -25 20 -10 16
-18 24 -18 19 0 -5 -11 3 -25 18 -14 15 -25 32 -25 37 0 6 -3 8 -7 6 -5 -3
-14 1 -21 9 -7 8 -10 14 -6 14 3 0 -12 15 -33 33 -21 17 -41 37 -43 42 -2 6
-17 20 -32 33 -46 39 -98 94 -98 104 0 5 -4 7 -8 4 -4 -2 -17 9 -27 25 -11 16
-23 29 -26 29 -10 0 -119 111 -119 121 0 5 -6 9 -12 10 -7 0 -28 18 -45 41
-18 22 -33 37 -33 34 0 -4 -6 -1 -14 6 -8 7 -12 16 -9 21 2 4 -1 7 -7 7 -6 0
-17 6 -23 13 -7 7 -33 36 -59 64 -27 29 -48 50 -48 47 0 -3 -6 1 -14 8 -8 7
-12 16 -9 21 2 4 -1 7 -8 7 -12 0 -69 59 -69 73 0 4 -4 7 -9 7 -12 0 -121 111
-121 123 0 5 -5 5 -11 2 -6 -4 -13 2 -16 14 -3 12 -10 21 -15 21 -13 0 -78 70
-78 84 0 5 -3 6 -7 3 -3 -4 -14 4 -23 19 -10 14 -20 24 -22 22 -3 -2 -22 17
-42 40 -20 24 -36 41 -36 38 0 -4 -6 -1 -14 6 -8 7 -12 16 -9 21 2 4 0 7 -6 7
-5 0 -22 11 -37 25 -15 14 -23 25 -18 25 5 0 -3 8 -19 18 -15 10 -24 22 -20
25 3 4 2 7 -3 7 -14 0 -84 66 -84 79 0 6 -4 11 -8 11 -4 0 -39 29 -77 65 -38
36 -75 65 -82 65 -7 0 -13 5 -13 10 0 6 -9 10 -19 10 -11 0 -23 5 -26 10 -3 6
-15 10 -26 10 -11 0 -18 3 -16 8 3 4 -12 7 -34 6 -21 0 -39 4 -39 9 0 5 -6 5
-13 -2 -10 -8 -17 -7 -25 1 -9 9 -12 9 -12 -2 0 -12 -2 -12 -8 -2 -5 7 -12 9
-16 5z"/>
</g>
</svg>
